<?xml version="1.0" encoding="utf-8"?>
<!-- Generator: Adobe Illustrator 19.0.0, SVG Export Plug-In . SVG Version: 6.00 Build 0)  -->
<svg version="1.1" id="Ebene_1" xmlns="http://www.w3.org/2000/svg" xmlns:xlink="http://www.w3.org/1999/xlink" x="0px" y="0px"
	 viewBox="0 0 273.077 55.65" enable-background="new 0 0 273.077 55.65" xml:space="preserve">
<g>
	<defs>
		<rect id="SVGID_1_" x="-98.824" y="-30.993" width="378" height="88.03"/>
	</defs>
	<clipPath id="SVGID_2_">
		<use xlink:href="#SVGID_1_"  overflow="visible"/>
	</clipPath>
	<path clip-path="url(#SVGID_2_)" fill="#010000" d="M273.077,53.734V23.416h-4.204v5.537c-1.026-2.187-2.478-3.845-4.358-4.973
		c-1.88-1.128-4.108-1.692-6.682-1.692c-4.148,0-7.532,1.533-10.152,4.597c-2.62,3.065-3.931,7.024-3.931,11.878
		c0,4.899,1.328,8.841,3.982,11.826c2.655,2.985,6.158,4.478,10.511,4.478c2.461,0,4.597-0.587,6.408-1.761
		c1.812-1.173,3.219-2.876,4.222-5.11v5.538H273.077z M251.202,29.551c1.845-2.267,4.352-3.4,7.519-3.4s5.662,1.065,7.486,3.195
		c1.822,2.131,2.734,5.054,2.734,8.767c0,4.057-0.918,7.241-2.752,9.554c-1.834,2.313-4.346,3.469-7.536,3.469
		c-3.281,0-5.805-1.06-7.571-3.179s-2.649-5.138-2.649-9.057C248.433,34.935,249.356,31.819,251.202,29.551 M235,0.755h-4.341
		v52.979H235V0.755z M218.902,0.755h-4.341v52.979h4.341V0.755z M202.803,23.416h-4.341v30.317h4.341V23.416z M198.343,13.88
		c0.626,0.615,1.395,0.923,2.307,0.923c0.934,0,1.714-0.308,2.341-0.923c0.627-0.615,0.94-1.378,0.94-2.29
		c0-0.889-0.325-1.646-0.974-2.273c-0.649-0.626-1.418-0.94-2.307-0.94c-0.889,0-1.652,0.314-2.29,0.94
		c-0.638,0.627-0.957,1.384-0.957,2.273C197.403,12.502,197.716,13.265,198.343,13.88 M186.705,0.755h-4.341v52.979h4.341V0.755z
		 M173.34,37.772c0-4.694-1.264-8.448-3.794-11.263c-2.529-2.814-5.89-4.221-10.083-4.221c-4.398,0-7.958,1.527-10.681,4.58
		c-2.723,3.054-4.084,7.064-4.084,12.032c0,4.831,1.372,8.732,4.118,11.706s6.341,4.461,10.784,4.461
		c3.258,0,6.01-0.724,8.254-2.171c2.245-1.447,4.142-3.708,5.691-6.785l-3.862-2.119c-1.117,2.439-2.518,4.262-4.204,5.469
		c-1.687,1.208-3.646,1.812-5.879,1.812c-3.099,0-5.571-1.117-7.417-3.35c-1.846-2.233-2.826-5.309-2.939-9.229h24.096V37.772z
		 M149.517,35.106c0.274-2.643,1.27-4.763,2.991-6.358c1.72-1.595,3.856-2.392,6.408-2.392c2.803,0,5.025,0.763,6.666,2.29
		c1.64,1.527,2.563,3.68,2.768,6.46H149.517z M136.153,53.734V0.755h-4.273v28.198c-1.025-2.187-2.466-3.845-4.323-4.973
		c-1.858-1.128-4.074-1.692-6.648-1.692c-4.148,0-7.532,1.533-10.152,4.597c-2.62,3.065-3.93,7.024-3.93,11.878
		c0,4.899,1.327,8.841,3.982,11.826c2.654,2.985,6.157,4.478,10.51,4.478c2.438,0,4.557-0.582,6.357-1.744
		c1.8-1.162,3.201-2.871,4.204-5.127v5.538H136.153z M114.278,29.551c1.846-2.267,4.352-3.4,7.519-3.4
		c3.167,0,5.651,1.065,7.452,3.195c1.799,2.131,2.7,5.054,2.7,8.767c0,4.057-0.912,7.241-2.735,9.554s-4.318,3.469-7.485,3.469
		c-3.281,0-5.805-1.06-7.571-3.179c-1.766-2.119-2.649-5.138-2.649-9.057C111.509,34.935,112.432,31.819,114.278,29.551
		 M77.159,53.734V37.908c0-4.078,0.757-7.069,2.273-8.972c1.515-1.902,3.879-2.854,7.092-2.854c2.643,0,4.597,0.735,5.862,2.205
		c1.264,1.469,1.897,3.72,1.897,6.75v18.697h4.272V33.157c0-3.418-0.957-6.084-2.871-7.998s-4.592-2.871-8.032-2.871
		c-2.324,0-4.381,0.485-6.17,1.453c-1.789,0.969-3.298,2.421-4.528,4.358v-4.683h-3.999v30.318H77.159z M61.675,53.734V23.416
		h-4.204v5.537c-1.025-2.187-2.478-3.845-4.358-4.973c-1.88-1.128-4.107-1.692-6.682-1.692c-4.147,0-7.531,1.533-10.151,4.597
		c-2.621,3.065-3.931,7.024-3.931,11.878c0,4.899,1.327,8.841,3.982,11.826c2.654,2.985,6.158,4.478,10.51,4.478
		c2.461,0,4.597-0.587,6.409-1.761c1.812-1.173,3.218-2.876,4.221-5.11v5.538H61.675z M39.8,29.551c1.846-2.267,4.352-3.4,7.52-3.4
		c3.167,0,5.662,1.065,7.485,3.195c1.823,2.131,2.735,5.054,2.735,8.767c0,4.057-0.918,7.241-2.752,9.554s-4.347,3.469-7.537,3.469
		c-3.281,0-5.805-1.06-7.57-3.179c-1.766-2.119-2.649-5.138-2.649-9.057C37.032,34.935,37.955,31.819,39.8,29.551 M26.812,24.339
		c-1.253-0.661-2.683-1.167-4.29-1.521c-1.606-0.353-3.321-0.53-5.144-0.53c-4.944,0-8.961,1.544-12.048,4.632
		c-3.088,3.087-4.631,7.104-4.631,12.048c0,4.74,1.481,8.63,4.443,11.672c2.962,3.042,6.756,4.563,11.382,4.563
		c2.051,0,3.976-0.211,5.776-0.632c1.8-0.422,3.441-1.054,4.922-1.897V48.06c-1.618,1.139-3.264,1.994-4.939,2.563
		c-1.675,0.57-3.332,0.855-4.973,0.855c-3.601,0-6.557-1.151-8.87-3.452c-2.313-2.302-3.469-5.23-3.469-8.785
		c0-4.01,1.116-7.217,3.35-9.621c2.233-2.404,5.229-3.606,8.989-3.606c1.686,0,3.327,0.245,4.922,0.735
		c1.595,0.49,3.099,1.225,4.512,2.204L26.812,24.339z"/>
</g>
</svg>
